#Comment line ignore any data following # character 
#Hierarchical Translation and Rotation (.htr) file 
[Header]	
#Header keywords are followed by a single value 
FileType HTR		#Single word string
DataType HTRS		#Translation followed by rotation and scale data
FileVersion 1		#integer
NumSegments 84		#integer
NumFrames 2		#integer
DataFrameRate 30		#integer, data frame rate in this file
EulerRotationOrder ZYX
CalibrationUnits mm
RotationUnits Degrees
GlobalAxisofGravity Y
BoneLengthAxis Y
ScaleFactor 1.00
[SegmentNames&Hierarchy]
#CHILD	PARENT
MASTER GLOBAL
root MASTER
chest root
L_mid_tent01 root
R_mid_tent01 root
spine01 root
Bip01_Neck chest
L_humerus chest
R_humerus chest
weapon_bone chest
Bip01_Head Bip01_Neck
eye_left_bone Bip01_Head
eye_right_bone Bip01_Head
L_forearm L_humerus
L_front_hand L_forearm
L_weapon_bone L_forearm
L_front_hand01_01 L_front_hand
L_front_hand02_01 L_front_hand
L_front_hand03_01 L_front_hand
L_front_hand01_02 L_front_hand01_01
L_front_hand02_02 L_front_hand02_01
L_front_hand03_02 L_front_hand03_01
R_forearm R_humerus
R_front_hand R_forearm
R_weapon_bone R_forearm
R_front_hand01_01 R_front_hand
R_front_hand02_01 R_front_hand
R_front_hand03_01 R_front_hand
R_front_hand01_02 R_front_hand01_01
R_front_hand02_02 R_front_hand02_01
R_front_hand03_02 R_front_hand03_01
null_rope01_connect L_mid_tent01
Rope1_Seg01 null_rope01_connect
Rope1_Seg02 Rope1_Seg01
Rope1_Seg03 Rope1_Seg02
Rope1_Seg04 Rope1_Seg03
Rope1_Seg05 Rope1_Seg04
Rope1_Seg06 Rope1_Seg05
Rope1_Seg07 Rope1_Seg06
Rope1_Seg09 Rope1_Seg07
L_mid_hand01 Rope1_Seg09
L_mid_hand02 Rope1_Seg09
L_mid_hand03 Rope1_Seg09
null_rope02_connect R_mid_tent01
Rope2_Seg01 null_rope02_connect
Rope2_Seg02 Rope2_Seg01
Rope2_Seg03 Rope2_Seg02
Rope2_Seg04 Rope2_Seg03
Rope2_Seg05 Rope2_Seg04
Rope2_Seg06 Rope2_Seg05
Rope2_Seg07 Rope2_Seg06
Rope2_Seg09 Rope2_Seg07
R_mid_hand01 Rope2_Seg09
R_mid_hand02 Rope2_Seg09
R_mid_hand03 Rope2_Seg09
spine02 spine01
spine03 spine02
pelvis spine03
null_rope03_connect pelvis
null_rope04_connect pelvis
Rope3_Seg01 null_rope03_connect
Rope3_Seg02 Rope3_Seg01
Rope3_Seg03 Rope3_Seg02
Rope3_Seg04 Rope3_Seg03
Rope3_Seg05 Rope3_Seg04
Rope3_Seg06 Rope3_Seg05
Rope3_Seg07 Rope3_Seg06
Rope3_Seg08 Rope3_Seg07
Rope3_Seg09 Rope3_Seg08
R_rear_hand01 Rope3_Seg09
R_rear_hand02 Rope3_Seg09
R_rear_hand03 Rope3_Seg09
Rope4_Seg01 null_rope04_connect
Rope4_Seg02 Rope4_Seg01
Rope4_Seg03 Rope4_Seg02
Rope4_Seg04 Rope4_Seg03
Rope4_Seg05 Rope4_Seg04
Rope4_Seg06 Rope4_Seg05
Rope4_Seg07 Rope4_Seg06
Rope4_Seg08 Rope4_Seg07
Rope4_Seg09 Rope4_Seg08
L_rear_hand01 Rope4_Seg09
L_rear_hand02 Rope4_Seg09
L_rear_hand03 Rope4_Seg09
[BasePosition]
#SegmentName Tx, Ty, Tz, Rx, Ry, Rz, BoneLength
MASTER 0.000000 0.000000 0.000000 -90.000000 0.000000 0.000000 10.000000 
root 0.000000 0.000000 0.000000 0.000000 0.000000 0.000000 10.000000 
chest 0.000000 0.000000 0.000000 0.000000 0.000000 0.000000 10.000000 
L_mid_tent01 0.000000 0.000000 0.000000 0.000000 0.000000 0.000000 10.000000 
R_mid_tent01 0.000000 0.000000 0.000000 0.000000 0.000000 0.000000 10.000000 
spine01 0.000000 0.000000 0.000000 0.000000 0.000000 0.000000 10.000000 
Bip01_Neck 0.000000 0.000000 0.000000 0.000000 0.000000 0.000000 10.000000 
L_humerus 0.000000 0.000000 0.000000 0.000000 0.000000 0.000000 10.000000 
R_humerus 0.000000 0.000000 0.000000 0.000000 0.000000 0.000000 10.000000 
weapon_bone 0.000000 0.000000 0.000000 0.000000 0.000000 0.000000 10.000000 
Bip01_Head 0.000000 0.000000 0.000000 0.000000 0.000000 0.000000 10.000000 
eye_left_bone 0.000000 0.000000 0.000000 0.000000 0.000000 0.000000 10.000000 
eye_right_bone 0.000000 0.000000 0.000000 0.000000 0.000000 0.000000 10.000000 
L_forearm 0.000000 0.000000 0.000000 0.000000 0.000000 0.000000 10.000000 
L_front_hand 0.000000 0.000000 0.000000 0.000000 0.000000 0.000000 10.000000 
L_weapon_bone 0.000000 0.000000 0.000000 0.000000 0.000000 0.000000 10.000000 
L_front_hand01_01 0.000000 0.000000 0.000000 0.000000 0.000000 0.000000 10.000000 
L_front_hand02_01 0.000000 0.000000 0.000000 0.000000 0.000000 0.000000 10.000000 
L_front_hand03_01 0.000000 0.000000 0.000000 0.000000 0.000000 0.000000 10.000000 
L_front_hand01_02 0.000000 0.000000 0.000000 0.000000 0.000000 0.000000 10.000000 
L_front_hand02_02 0.000000 0.000000 0.000000 0.000000 0.000000 0.000000 10.000000 
L_front_hand03_02 0.000000 0.000000 0.000000 0.000000 0.000000 0.000000 10.000000 
R_forearm 0.000000 0.000000 0.000000 0.000000 0.000000 0.000000 10.000000 
R_front_hand 0.000000 0.000000 0.000000 0.000000 0.000000 0.000000 10.000000 
R_weapon_bone 0.000000 0.000000 0.000000 0.000000 0.000000 0.000000 10.000000 
R_front_hand01_01 0.000000 0.000000 0.000000 0.000000 0.000000 0.000000 10.000000 
R_front_hand02_01 0.000000 0.000000 0.000000 0.000000 0.000000 0.000000 10.000000 
R_front_hand03_01 0.000000 0.000000 0.000000 0.000000 0.000000 0.000000 10.000000 
R_front_hand01_02 0.000000 0.000000 0.000000 0.000000 0.000000 0.000000 10.000000 
R_front_hand02_02 0.000000 0.000000 0.000000 0.000000 0.000000 0.000000 10.000000 
R_front_hand03_02 0.000000 0.000000 0.000000 0.000000 0.000000 0.000000 10.000000 
null_rope01_connect 0.000000 0.000000 0.000000 0.000000 0.000000 0.000000 10.000000 
Rope1_Seg01 0.000000 0.000000 0.000000 0.000000 0.000000 0.000000 10.000000 
Rope1_Seg02 0.000000 0.000000 0.000000 0.000000 0.000000 0.000000 10.000000 
Rope1_Seg03 0.000000 0.000000 0.000000 0.000000 0.000000 0.000000 10.000000 
Rope1_Seg04 0.000000 0.000000 0.000000 0.000000 0.000000 0.000000 10.000000 
Rope1_Seg05 0.000000 0.000000 0.000000 0.000000 0.000000 0.000000 10.000000 
Rope1_Seg06 0.000000 0.000000 0.000000 0.000000 0.000000 0.000000 10.000000 
Rope1_Seg07 0.000000 0.000000 0.000000 0.000000 0.000000 0.000000 10.000000 
Rope1_Seg09 0.000000 0.000000 0.000000 0.000000 0.000000 0.000000 10.000000 
L_mid_hand01 0.000000 0.000000 0.000000 0.000000 0.000000 0.000000 10.000000 
L_mid_hand02 0.000000 0.000000 0.000000 0.000000 0.000000 0.000000 10.000000 
L_mid_hand03 0.000000 0.000000 0.000000 0.000000 0.000000 0.000000 10.000000 
null_rope02_connect 0.000000 0.000000 0.000000 0.000000 0.000000 0.000000 10.000000 
Rope2_Seg01 0.000000 0.000000 0.000000 0.000000 0.000000 0.000000 10.000000 
Rope2_Seg02 0.000000 0.000000 0.000000 0.000000 0.000000 0.000000 10.000000 
Rope2_Seg03 0.000000 0.000000 0.000000 0.000000 0.000000 0.000000 10.000000 
Rope2_Seg04 0.000000 0.000000 0.000000 0.000000 0.000000 0.000000 10.000000 
Rope2_Seg05 0.000000 0.000000 0.000000 0.000000 0.000000 0.000000 10.000000 
Rope2_Seg06 0.000000 0.000000 0.000000 0.000000 0.000000 0.000000 10.000000 
Rope2_Seg07 0.000000 0.000000 0.000000 0.000000 0.000000 0.000000 10.000000 
Rope2_Seg09 0.000000 0.000000 0.000000 0.000000 0.000000 0.000000 10.000000 
R_mid_hand01 0.000000 0.000000 0.000000 0.000000 0.000000 0.000000 10.000000 
R_mid_hand02 0.000000 0.000000 0.000000 0.000000 0.000000 0.000000 10.000000 
R_mid_hand03 0.000000 0.000000 0.000000 0.000000 0.000000 0.000000 10.000000 
spine02 0.000000 0.000000 0.000000 0.000000 0.000000 0.000000 10.000000 
spine03 0.000000 0.000000 0.000000 0.000000 0.000000 0.000000 10.000000 
pelvis 0.000000 0.000000 0.000000 0.000000 0.000000 0.000000 10.000000 
null_rope03_connect 0.000000 0.000000 0.000000 0.000000 0.000000 0.000000 10.000000 
null_rope04_connect 0.000000 0.000000 0.000000 0.000000 0.000000 0.000000 10.000000 
Rope3_Seg01 0.000000 0.000000 0.000000 0.000000 0.000000 0.000000 10.000000 
Rope3_Seg02 0.000000 0.000000 0.000000 0.000000 0.000000 0.000000 10.000000 
Rope3_Seg03 0.000000 0.000000 0.000000 0.000000 0.000000 0.000000 10.000000 
Rope3_Seg04 0.000000 0.000000 0.000000 0.000000 0.000000 0.000000 10.000000 
Rope3_Seg05 0.000000 0.000000 0.000000 0.000000 0.000000 0.000000 10.000000 
Rope3_Seg06 0.000000 0.000000 0.000000 0.000000 0.000000 0.000000 10.000000 
Rope3_Seg07 0.000000 0.000000 0.000000 0.000000 0.000000 0.000000 10.000000 
Rope3_Seg08 0.000000 0.000000 0.000000 0.000000 0.000000 0.000000 10.000000 
Rope3_Seg09 0.000000 0.000000 0.000000 0.000000 0.000000 0.000000 10.000000 
R_rear_hand01 0.000000 0.000000 0.000000 0.000000 0.000000 0.000000 10.000000 
R_rear_hand02 0.000000 0.000000 0.000000 0.000000 0.000000 0.000000 10.000000 
R_rear_hand03 0.000000 0.000000 0.000000 0.000000 0.000000 0.000000 10.000000 
Rope4_Seg01 0.000000 0.000000 0.000000 0.000000 0.000000 0.000000 10.000000 
Rope4_Seg02 0.000000 0.000000 0.000000 0.000000 0.000000 0.000000 10.000000 
Rope4_Seg03 0.000000 0.000000 0.000000 0.000000 0.000000 0.000000 10.000000 
Rope4_Seg04 0.000000 0.000000 0.000000 0.000000 0.000000 0.000000 10.000000 
Rope4_Seg05 0.000000 0.000000 0.000000 0.000000 0.000000 0.000000 10.000000 
Rope4_Seg06 0.000000 0.000000 0.000000 0.000000 0.000000 0.000000 10.000000 
Rope4_Seg07 0.000000 0.000000 0.000000 0.000000 0.000000 0.000000 10.000000 
Rope4_Seg08 0.000000 0.000000 0.000000 0.000000 0.000000 0.000000 10.000000 
Rope4_Seg09 0.000000 0.000000 0.000000 0.000000 0.000000 0.000000 10.000000 
L_rear_hand01 0.000000 0.000000 0.000000 0.000000 0.000000 0.000000 10.000000 
L_rear_hand02 0.000000 0.000000 0.000000 0.000000 0.000000 0.000000 10.000000 
L_rear_hand03 0.000000 0.000000 0.000000 0.000000 0.000000 0.000000 10.000000 
#Beginning of Data. Separated by tabs
#Fr	Tx	Ty	Tz	Rx	Ry	Rz	SF
[MASTER]
29 2373.967041 -7553.764160 662.461670 0.000000 -0.002347 -90.000000 7945.686523
30 2374.997314 -7553.764160 662.461670 0.000000 -0.002347 -90.000000 7945.994141
[root]
29 -85.672104 -28.325857 1004.091614 -98.974518 -15.780475 178.768753 1008.137939
30 -85.672104 -48.148251 1004.091614 -103.687088 -16.958477 175.611160 1008.889465
[chest]
29 -84.512650 -34.090519 0.000000 -24.118242 -0.091814 175.505661 91.129311
30 -84.512650 -34.090519 0.000000 -33.196712 0.061569 176.697250 91.129311
[L_mid_tent01]
29 27.299965 22.177557 -249.918259 -15.302648 15.065760 -51.275913 252.381195
30 27.299980 22.177559 -249.918259 -12.060355 13.482036 -45.820084 252.381195
[R_mid_tent01]
29 23.228794 24.509907 226.238495 163.966003 -5.573268 81.798447 228.744751
30 23.228794 24.509907 226.238495 162.928864 -11.551036 84.042046 228.744751
[spine01]
29 -0.361383 -0.195265 0.000000 0.001687 0.001632 1.890996 0.410763
30 -0.361383 -0.195265 0.000000 0.001687 0.001632 1.890996 0.410763
[Bip01_Neck]
29 165.484543 71.581718 0.000119 176.643677 -1.657967 43.431911 180.302734
30 165.484543 71.581718 0.000119 176.643677 -1.657967 43.431911 180.302734
[L_humerus]
29 -13.983130 -135.272980 -120.471481 173.411942 -3.356295 -92.945770 181.680161
30 -13.983130 -135.272980 -120.471481 172.083527 0.708470 -94.955727 181.680161
[R_humerus]
29 -13.983309 -135.273102 125.287651 -176.998413 6.374053 -85.208366 184.909012
30 -13.983309 -135.273102 125.287651 -177.014343 2.678798 -85.399727 184.909012
[weapon_bone]
29 235.964890 -300.705902 0.000000 0.000000 -89.951546 -128.212341 382.234833
30 235.964890 -300.705902 0.000000 0.000000 -89.951546 -128.212341 382.234833
[Bip01_Head]
29 213.393112 185.858322 9.932449 -3.461747 6.149679 -43.830669 283.158234
30 213.398575 185.843063 10.129220 -8.369938 6.150617 -43.832905 283.159302
[eye_left_bone]
29 -24.626970 125.451866 -64.772606 0.000000 -90.000000 -99.840431 143.318359
30 -24.626970 125.451866 -64.772606 0.000000 -90.000000 -99.840431 143.318359
[eye_right_bone]
29 -24.626970 125.451866 64.327362 0.000000 -89.965736 80.156380 143.117676
30 -24.626970 125.451866 64.327362 0.000000 -89.965736 80.156380 143.117676
[L_forearm]
29 322.776093 0.000000 -0.000119 0.000119 -0.002344 -95.807457 322.776093
30 322.776093 0.000000 -0.000119 0.000119 -0.002344 -95.807457 322.776093
[L_front_hand]
29 241.149185 -0.042021 -3.300071 -178.667953 -1.835447 -27.422350 241.171753
30 241.149185 -0.042021 -3.300071 -178.667953 -1.835447 -27.422350 241.171753
[L_weapon_bone]
29 156.183838 0.000000 0.000000 0.000014 0.000007 0.000001 156.183838
30 156.183838 0.000000 0.000000 0.000014 0.000007 0.000001 156.183838
[L_front_hand01_01]
29 86.095154 20.947098 -0.655860 -0.366594 -0.477154 75.385582 88.609184
30 86.095154 20.947098 -0.655860 -0.366594 -0.477154 75.385574 88.609184
[L_front_hand02_01]
29 86.935165 -11.437475 24.513514 154.399796 -59.883835 -61.369587 91.046425
30 86.935165 -11.437475 24.513514 154.399796 -59.883835 -61.369587 91.046425
[L_front_hand03_01]
29 86.637497 -14.123976 -20.424902 -153.913849 58.118122 -62.702866 90.126129
30 86.637497 -14.123976 -20.424902 -153.913849 58.118122 -62.702866 90.126129
[L_front_hand01_02]
29 71.020905 -0.000179 0.000030 0.000334 -0.002323 -106.369392 71.020905
30 71.020905 -0.000179 0.000030 0.000334 -0.002323 -106.370071 71.020905
[L_front_hand02_02]
29 71.020927 -0.000119 0.000060 0.000334 -0.002323 -106.369392 71.020927
30 71.020927 -0.000119 0.000060 0.000334 -0.002323 -106.370071 71.020927
[L_front_hand03_02]
29 71.020905 -0.000060 0.000060 0.000334 -0.002323 -106.369392 71.020905
30 71.020905 -0.000060 0.000060 0.000334 -0.002323 -106.370071 71.020905
[R_forearm]
29 322.776428 -0.000060 0.000030 0.209504 0.012586 -94.339050 322.776428
30 322.776428 -0.000060 0.000030 0.209504 0.012586 -94.339050 322.776428
[R_front_hand]
29 238.847015 -0.006795 2.210259 -2.635298 -10.645461 -26.312506 238.857239
30 238.847015 -0.006795 2.210259 -2.635298 -10.645461 -26.312506 238.857239
[R_weapon_bone]
29 155.664093 0.002503 -0.000030 0.003487 0.001180 -90.988930 155.664078
30 155.664093 0.002503 -0.000030 0.003487 0.001180 -90.988930 155.664078
[R_front_hand01_01]
29 87.624611 14.231146 22.918642 -154.633499 -59.950619 61.746044 91.683487
30 87.624611 14.231146 22.918642 -154.633499 -59.950619 61.746044 91.683487
[R_front_hand02_01]
29 89.356956 14.367283 -19.491137 154.602661 58.302849 63.744389 92.579636
30 89.356956 14.367283 -19.491137 154.602661 58.302849 63.744389 92.579636
[R_front_hand03_01]
29 87.286232 -22.307278 -0.143439 0.162155 -0.423168 -75.767921 90.091743
30 87.286232 -22.307278 -0.143439 0.162155 -0.423168 -75.767921 90.091743
[R_front_hand01_02]
29 71.020905 0.000060 0.000119 0.002323 -0.000334 106.381714 71.020905
30 71.020905 0.000060 0.000119 0.002323 -0.000334 106.381714 71.020905
[R_front_hand02_02]
29 71.020844 -0.000030 -0.000119 0.002323 -0.000334 106.381714 71.020836
30 71.020844 -0.000030 -0.000119 0.002323 -0.000334 106.381714 71.020836
[R_front_hand03_02]
29 71.020905 0.000000 0.000030 0.002323 -0.000334 106.381714 71.020905
30 71.020905 0.000000 0.000030 0.002323 -0.000334 106.381714 71.020905
[null_rope01_connect]
29 328.732483 0.000000 -0.000238 91.741257 66.396912 68.440956 328.732483
30 328.732483 0.000000 -0.000238 104.297188 63.936752 77.567902 328.732483
[Rope1_Seg01]
29 0.000029 0.000621 0.000000 -46.051216 -49.112965 178.705078 0.000622
30 0.000029 0.000644 0.000000 -61.882374 -53.393154 -167.612427 0.000644
[Rope1_Seg02]
29 139.999863 -0.000179 0.000000 -7.407454 -8.677916 -5.502035 139.999863
30 139.999863 -0.000179 0.000000 -8.798629 -6.775541 -7.039694 139.999863
[Rope1_Seg03]
29 139.999924 0.000060 -0.000060 -11.008072 -12.010637 -10.446777 139.999924
30 139.999924 0.000060 -0.000060 -10.971047 -8.136086 -12.609832 139.999924
[Rope1_Seg04]
29 139.999924 -0.000060 -0.000119 -10.592607 -10.820947 -16.769146 139.999924
30 139.999924 -0.000060 -0.000119 -8.972139 -5.888041 -18.579144 139.999924
[Rope1_Seg05]
29 139.999832 0.000119 -0.000060 -7.952068 -11.489130 -18.728374 139.999832
30 139.999832 0.000119 -0.000060 -6.415874 -11.900583 -25.420921 139.999832
[Rope1_Seg06]
29 139.999954 0.000119 -0.000060 -4.592305 -13.544124 -25.316267 139.999954
30 139.999954 0.000119 -0.000060 -1.354569 -7.402534 -20.385069 139.999954
[Rope1_Seg07]
29 139.999985 0.000060 0.000000 -0.757680 -5.586383 -16.417740 139.999985
30 139.999985 0.000060 0.000000 0.278829 -2.719538 -10.184560 139.999985
[Rope1_Seg09]
29 121.602913 0.000119 -0.000089 -89.793175 -1.359789 0.847147 121.602913
30 121.602913 0.000119 -0.000089 -89.793175 -1.359789 0.847147 121.602913
[L_mid_hand01]
29 103.859421 1.038730 8.195221 130.544373 -67.584534 -38.866943 104.187431
30 103.859421 1.038730 8.195221 130.544373 -67.584534 -38.866943 104.187431
[L_mid_hand02]
29 105.572853 -4.139662 -10.864139 -168.923172 43.409321 -73.498909 106.211075
30 105.572853 -4.139662 -10.864139 -168.923172 43.409309 -73.498894 106.211075
[L_mid_hand03]
29 104.641464 17.579376 -3.913581 -6.012627 17.808174 74.893669 106.179977
30 104.641464 17.579376 -3.913581 -6.012627 17.808174 74.893669 106.179977
[null_rope02_connect]
29 328.732849 0.000179 -0.000119 53.198917 -73.390320 -76.545525 328.732849
30 328.732849 0.000179 -0.000119 53.144917 -75.104668 -75.259102 328.732849
[Rope2_Seg01]
29 -0.000057 -0.000094 0.000000 109.669777 24.398922 84.095802 0.000110
30 -0.000056 -0.000090 0.000000 110.583885 24.946432 85.306267 0.000106
[Rope2_Seg02]
29 139.999741 -0.000060 -0.000119 0.912052 -10.932691 2.950476 139.999756
30 139.999741 -0.000060 -0.000119 0.185316 -13.861484 4.967836 139.999756
[Rope2_Seg03]
29 140.000107 0.000030 0.000000 1.113321 -8.513213 0.990109 140.000107
30 140.000107 0.000030 0.000000 0.630948 -12.610601 2.863087 140.000107
[Rope2_Seg04]
29 139.999802 0.000000 -0.000060 0.521996 -6.713495 1.011476 139.999802
30 139.999802 0.000000 -0.000060 -0.180276 -9.623153 3.576045 139.999802
[Rope2_Seg05]
29 139.999985 -0.000060 0.000119 -1.829918 -12.893202 11.261329 139.999985
30 139.999985 -0.000060 0.000119 -0.543186 -7.532787 10.440403 139.999985
[Rope2_Seg06]
29 139.999893 -0.000030 -0.000119 -0.494667 -14.673089 14.047391 139.999893
30 139.999893 -0.000030 -0.000119 0.752608 -6.122671 9.447022 139.999893
[Rope2_Seg07]
29 139.999893 0.000060 -0.000060 1.173413 -8.455843 7.602839 139.999893
30 139.999893 0.000060 -0.000060 0.995010 -4.247839 5.678563 139.999893
[Rope2_Seg09]
29 121.338966 0.000089 -0.000060 33.793236 -1.359788 -0.847141 121.338966
30 121.338966 0.000089 -0.000060 33.793236 -1.359788 -0.847141 121.338966
[R_mid_hand01]
29 104.680779 11.144459 -10.335981 -16.212063 45.237240 70.462845 105.778534
30 104.680779 11.144459 -10.335981 -16.212063 45.237247 70.462852 105.778534
[R_mid_hand02]
29 104.070427 2.443552 8.231699 49.067368 -67.749771 39.286453 104.424065
30 104.070427 2.443552 8.231699 49.067375 -67.749794 39.286476 104.424065
[R_mid_hand03]
29 106.028137 -11.221827 -5.996406 -177.101105 15.551026 -76.585571 106.788818
30 106.028137 -11.221827 -5.996406 -177.101105 15.551029 -76.585594 106.788818
[spine02]
29 129.756927 0.001550 0.000119 -1.023899 -3.926965 6.770993 129.756927
30 129.756927 0.001550 0.000119 -1.023899 -3.926965 6.770993 129.756927
[spine03]
29 78.614128 0.087485 -4.898892 1.040681 4.146420 4.212376 78.766670
30 78.614136 0.087491 -4.898893 1.040681 4.146420 4.212376 78.766678
[pelvis]
29 169.435242 0.051022 0.000000 -57.408150 -0.188154 -10.720379 169.435257
30 169.435242 0.051022 0.000000 -57.175991 -0.188577 -10.719953 169.435257
[null_rope03_connect]
29 -1.257226 -2.466202 137.391083 165.582016 23.000490 88.280396 137.418976
30 -1.257226 -2.466202 137.391083 163.469452 17.635870 84.979942 137.418976
[null_rope04_connect]
29 -1.259640 -2.480268 -137.844437 165.582016 23.000490 88.280396 137.872513
30 -1.259640 -2.480268 -137.844437 163.469452 17.635870 84.979942 137.872513
[Rope3_Seg01]
29 0.000029 0.000621 0.000000 -126.961456 7.572937 123.762131 0.000622
30 0.000029 0.000644 0.000000 -126.939247 20.609568 115.463722 0.000644
[Rope3_Seg02]
29 139.999924 -0.000119 0.000060 2.161853 -4.216276 12.694514 139.999924
30 139.999924 -0.000119 0.000060 0.209052 -1.178943 10.221486 139.999924
[Rope3_Seg03]
29 139.999924 -0.000119 0.000119 -0.314042 -5.626508 21.045813 139.999924
30 139.999924 -0.000119 0.000119 -1.741084 -1.622700 16.686222 139.999924
[Rope3_Seg04]
29 139.999924 0.000119 0.000000 -3.970281 -4.464860 19.834925 139.999924
30 139.999924 0.000119 0.000000 -5.626555 -1.646259 19.654480 139.999924
[Rope3_Seg05]
29 139.999924 -0.000238 0.000060 -19.061365 -11.818307 32.209373 139.999924
30 139.999924 -0.000238 0.000060 -33.697609 -10.899178 38.159931 139.999924
[Rope3_Seg06]
29 139.999893 -0.000119 -0.000060 -33.783321 -21.759354 30.444164 139.999893
30 139.999893 -0.000119 -0.000060 -31.396505 -20.021313 18.819984 139.999893
[Rope3_Seg07]
29 139.999771 0.000060 -0.000119 -8.923621 -11.272259 5.266654 139.999771
30 139.999771 0.000060 -0.000119 -7.652267 -9.238024 2.406116 139.999771
[Rope3_Seg08]
29 139.999985 -0.000060 0.000000 -2.985044 -5.229614 1.534650 139.999985
30 139.999985 -0.000060 0.000000 -2.687580 -4.448918 0.546686 139.999985
[Rope3_Seg09]
29 90.185997 -0.000179 -0.000060 89.793228 -1.359877 -0.847183 90.185997
30 90.185997 -0.000179 -0.000060 89.793228 -1.359877 -0.847183 90.185997
[R_rear_hand01]
29 103.366196 -6.073594 -10.757982 -177.714203 24.565960 -73.910950 104.101845
30 103.366196 -6.073594 -10.757982 -177.714203 24.565966 -73.910950 104.101845
[R_rear_hand02]
29 100.509819 12.039542 -7.992327 -12.874829 36.868488 72.167213 101.543350
30 100.509819 12.039542 -7.992327 -12.874834 36.868492 72.167213 101.543350
[R_rear_hand03]
29 101.539970 5.215704 5.435467 71.484581 -71.816628 21.513813 101.819031
30 101.539970 5.215704 5.435467 71.484627 -71.816643 21.513817 101.819031
[Rope4_Seg01]
29 0.000005 0.000640 -0.000153 29.561090 -29.461748 116.320869 0.000658
30 0.000005 0.000662 -0.000153 27.449203 -38.337074 115.711876 0.000679
[Rope4_Seg02]
29 139.999985 0.000060 0.000119 -1.347412 -9.437683 0.291523 139.999985
30 139.999985 0.000060 0.000119 -0.032547 -8.302264 -2.535056 139.999985
[Rope4_Seg03]
29 139.999924 0.000000 -0.000238 -1.355911 -17.818035 2.271920 139.999924
30 139.999924 0.000000 -0.000238 0.541010 -14.198958 -4.168414 139.999924
[Rope4_Seg04]
29 139.999985 0.000000 0.000119 4.519419 -34.285919 2.932640 139.999985
30 139.999985 0.000000 0.000119 2.393742 -20.679995 -4.614688 139.999985
[Rope4_Seg05]
29 139.999802 -0.000060 -0.000119 22.939573 -43.825508 -20.374662 139.999802
30 139.999802 -0.000060 -0.000119 10.078193 -39.011604 -19.994804 139.999802
[Rope4_Seg06]
29 139.999924 0.000000 0.000060 73.236740 -11.767361 -1.178943 139.999924
30 139.999924 0.000000 0.000060 82.386772 -18.416748 -7.750102 139.999924
[Rope4_Seg07]
29 139.999802 0.000000 0.000000 47.092239 -1.555324 4.537678 139.999802
30 139.999802 0.000000 0.000000 87.551323 -3.498002 6.326874 139.999802
[Rope4_Seg08]
29 139.999924 0.000000 0.000119 8.534861 1.159855 2.161477 139.999924
30 139.999924 0.000000 0.000119 0.881287 3.025028 1.840723 139.999924
[Rope4_Seg09]
29 90.185791 0.000060 0.000060 -135.617828 2.228885 0.850567 90.185791
30 90.185791 0.000060 0.000060 -135.617828 2.228885 0.850567 90.185791
[L_rear_hand01]
29 101.696655 -8.392275 -7.654577 -12.874829 -36.868488 107.832764 102.329041
30 101.696655 -8.392275 -7.654577 -12.874829 -36.868488 107.832764 102.329041
[L_rear_hand02]
29 102.726799 -1.568258 5.773216 71.484581 71.816643 158.486160 102.900848
30 102.726799 -1.568258 5.773216 71.484581 71.816628 158.486160 102.900848
[L_rear_hand03]
29 104.552910 9.721220 -10.420293 -177.714203 -24.565960 -106.089035 105.519653
30 104.552910 9.721220 -10.420293 -177.714203 -24.565960 -106.089035 105.519653
